<?xml version="1.0" standalone="no"?>
<!DOCTYPE svg PUBLIC "-//W3C//DTD SVG 20010904//EN"
 "http://www.w3.org/TR/2001/REC-SVG-20010904/DTD/svg10.dtd">
<svg version="1.0" xmlns="http://www.w3.org/2000/svg"
 width="700.000000pt" height="700.000000pt" viewBox="0 0 700.000000 700.000000"
 preserveAspectRatio="xMidYMid meet">
<metadata>
Created by potrace 1.14, written by Peter Selinger 2001-2017
</metadata>
<g transform="translate(0.000000,700.000000) scale(0.100000,-0.100000)"
fill="#000000" stroke="none">
<path d="M3265 5793 c-429 -35 -783 -122 -1157 -283 -1001 -431 -1739 -1302
-2008 -2369 -75 -297 -103 -563 -98 -916 3 -231 4 -242 27 -290 32 -63 93
-124 156 -156 43 -20 64 -24 145 -24 83 0 101 4 145 27 62 32 129 103 158 166
19 43 22 72 28 327 7 283 21 419 60 605 117 546 380 1032 774 1425 448 448
1018 726 1660 811 177 23 513 23 690 0 341 -45 623 -132 927 -283 715 -357
1249 -1004 1462 -1771 72 -258 96 -440 105 -787 6 -255 9 -284 28 -327 29 -63
96 -134 158 -166 44 -23 62 -27 145 -27 81 0 102 4 145 24 63 32 124 93 156
156 23 48 24 58 27 300 4 322 -16 542 -75 805 -216 978 -821 1803 -1688 2300
-432 249 -949 408 -1458 450 -117 9 -415 11 -512 3z"/>
<path d="M3300 4479 c-734 -70 -1385 -476 -1766 -1099 -223 -366 -344 -821
-332 -1250 3 -120 6 -141 29 -190 32 -66 86 -123 154 -158 44 -23 62 -27 145
-27 111 0 167 21 235 90 76 75 88 114 97 320 12 279 41 432 118 627 203 512
638 876 1197 1000 84 19 129 22 318 23 194 0 233 -3 329 -23 312 -67 602 -222
820 -437 219 -216 368 -473 440 -761 35 -139 45 -223 54 -429 9 -206 21 -245
97 -320 68 -69 124 -90 235 -90 83 0 101 4 145 27 68 35 122 92 154 158 23 49
26 70 29 190 12 429 -109 884 -332 1250 -258 422 -663 765 -1116 944 -336 132
-710 188 -1050 155z"/>
<path d="M3390 3169 c-228 -25 -476 -152 -623 -320 -165 -187 -243 -387 -254
-655 -5 -126 -4 -149 16 -211 25 -85 82 -154 162 -198 74 -40 188 -47 270 -16
94 36 171 118 200 213 6 18 14 94 18 169 7 122 10 140 36 188 124 227 446 227
570 0 26 -48 29 -66 36 -188 4 -75 12 -151 18 -169 29 -95 106 -177 200 -213
82 -31 196 -24 270 16 80 44 137 113 162 198 20 62 21 85 16 211 -4 89 -13
171 -26 221 -73 291 -252 518 -516 650 -176 89 -370 125 -555 104z"/>
</g>
</svg>
