<svg width="31" height="31" viewBox="0 0 31 31" fill="none" xmlns="http://www.w3.org/2000/svg">
<path d="M31 20.8281V21.7969C31 22.1823 30.8469 22.5519 30.5744 22.8244C30.3019 23.0969 29.9323 23.25 29.5469 23.25C29.1615 23.25 28.7919 23.0969 28.5194 22.8244C28.2468 22.5519 28.0938 22.1823 28.0938 21.7969V20.8281C28.0937 17.4881 26.7669 14.2848 24.4051 11.923C22.0433 9.56121 18.8401 8.23438 15.5 8.23438C12.1599 8.23438 8.95666 9.56121 6.59487 11.923C4.23309 14.2848 2.90625 17.4881 2.90625 20.8281V21.7969C2.90625 22.1823 2.75315 22.5519 2.48064 22.8244C2.20813 23.0969 1.83852 23.25 1.45312 23.25C1.06773 23.25 0.698124 23.0969 0.42561 22.8244C0.153097 22.5519 0 22.1823 0 21.7969L0 20.8281C0 16.7173 1.63303 12.7748 4.53985 9.86797C7.44666 6.96116 11.3891 5.32813 15.5 5.32812C19.6109 5.32813 23.5533 6.96116 26.4602 9.86797C29.367 12.7748 31 16.7173 31 20.8281ZM15.5 16.9531C14.3438 16.9531 13.235 17.4124 12.4175 18.23C11.5999 19.0475 11.1406 20.1563 11.1406 21.3125V21.7969C11.1406 22.1823 11.2937 22.5519 11.5662 22.8244C11.8387 23.0969 12.2084 23.25 12.5938 23.25C12.9791 23.25 13.3488 23.0969 13.6213 22.8244C13.8938 22.5519 14.0469 22.1823 14.0469 21.7969V21.3125C14.0469 20.9271 14.2 20.5575 14.4725 20.285C14.745 20.0125 15.1146 19.8594 15.5 19.8594C15.8854 19.8594 16.255 20.0125 16.5275 20.285C16.8 20.5575 16.9531 20.9271 16.9531 21.3125V21.7969C16.9531 22.1823 17.1062 22.5519 17.3787 22.8244C17.6512 23.0969 18.0209 23.25 18.4062 23.25C18.7916 23.25 19.1613 23.0969 19.4338 22.8244C19.7063 22.5519 19.8594 22.1823 19.8594 21.7969V21.3125C19.8594 20.1563 19.4001 19.0475 18.5825 18.23C17.765 17.4124 16.6562 16.9531 15.5 16.9531ZM15.5 11.1406C12.8031 11.1435 10.2176 12.2161 8.31058 14.1231C6.40361 16.0301 5.33101 18.6156 5.32812 21.3125V21.7969C5.32813 22.1823 5.48122 22.5519 5.75374 22.8244C6.02625 23.0969 6.39586 23.25 6.78125 23.25C7.16664 23.25 7.53625 23.0969 7.80876 22.8244C8.08128 22.5519 8.23437 22.1823 8.23438 21.7969V21.3125C8.23438 19.3855 8.99986 17.5375 10.3624 16.1749C11.725 14.8124 13.573 14.0469 15.5 14.0469C17.427 14.0469 19.275 14.8124 20.6376 16.1749C22.0001 17.5375 22.7656 19.3855 22.7656 21.3125V21.7969C22.7656 22.1823 22.9187 22.5519 23.1912 22.8244C23.4637 23.0969 23.8334 23.25 24.2188 23.25C24.6041 23.25 24.9738 23.0969 25.2463 22.8244C25.5188 22.5519 25.6719 22.1823 25.6719 21.7969V21.3125C25.669 18.6156 24.5964 16.0301 22.6894 14.1231C20.7824 12.2161 18.1969 11.1435 15.5 11.1406Z" fill="#ECB45F"/>
</svg>
